<svg width="5" height="5" viewBox="0 0 5 5" fill="none" xmlns="http://www.w3.org/2000/svg">
<path d="M4.64124 2.35141L2.76624 0.434279C2.73058 0.399371 2.68853 0.372008 2.64249 0.353759C2.5512 0.31541 2.44879 0.31541 2.35749 0.353759C2.31146 0.372008 2.26941 0.399371 2.23374 0.434279L0.358743 2.35141C0.323779 2.38716 0.296044 2.42961 0.277121 2.47632C0.258198 2.52303 0.248459 2.57309 0.248459 2.62365C0.248459 2.72575 0.288129 2.82368 0.358743 2.89588C0.429357 2.96808 0.52513 3.00864 0.624993 3.00864C0.724856 3.00864 0.820629 2.96808 0.891243 2.89588L2.12499 1.63057V4.54078C2.12499 4.64247 2.1645 4.74 2.23483 4.81191C2.30515 4.88381 2.40054 4.92421 2.49999 4.92421C2.59945 4.92421 2.69483 4.88381 2.76516 4.81191C2.83548 4.74 2.87499 4.64247 2.87499 4.54078V1.63057L4.10874 2.89588C4.1436 2.93182 4.18508 2.96034 4.23078 2.97981C4.27647 2.99928 4.32549 3.0093 4.37499 3.0093C4.4245 3.0093 4.47351 2.99928 4.51921 2.97981C4.56491 2.96034 4.60638 2.93182 4.64124 2.89588C4.67639 2.86024 4.70429 2.81783 4.72333 2.7711C4.74237 2.72438 4.75217 2.67426 4.75217 2.62365C4.75217 2.57303 4.74237 2.52291 4.72333 2.47619C4.70429 2.42947 4.67639 2.38706 4.64124 2.35141Z" fill="black"/>
</svg>
