<svg width="10" height="10" viewBox="0 0 10 10" fill="none" xmlns="http://www.w3.org/2000/svg">
<path d="M9 3.09V0.5C9 0.367392 8.94732 0.240215 8.85355 0.146447C8.75978 0.0526784 8.63261 0 8.5 0C8.36739 0 8.24021 0.0526784 8.14645 0.146447C8.05268 0.240215 8 0.367392 8 0.5V3.09C7.71042 3.1951 7.46023 3.38681 7.28342 3.63908C7.10661 3.89135 7.01176 4.19194 7.01176 4.5C7.01176 4.80806 7.10661 5.10865 7.28342 5.36092C7.46023 5.61319 7.71042 5.8049 8 5.91V9.5C8 9.63261 8.05268 9.75979 8.14645 9.85355C8.24021 9.94732 8.36739 10 8.5 10C8.63261 10 8.75978 9.94732 8.85355 9.85355C8.94732 9.75979 9 9.63261 9 9.5V5.91C9.28958 5.8049 9.53977 5.61319 9.71658 5.36092C9.89339 5.10865 9.98824 4.80806 9.98824 4.5C9.98824 4.19194 9.89339 3.89135 9.71658 3.63908C9.53977 3.38681 9.28958 3.1951 9 3.09V3.09ZM8.5 5C8.40111 5 8.30444 4.97068 8.22221 4.91573C8.13999 4.86079 8.0759 4.7827 8.03806 4.69134C8.00022 4.59998 7.99031 4.49945 8.00961 4.40245C8.0289 4.30546 8.07652 4.21637 8.14645 4.14645C8.21637 4.07652 8.30546 4.0289 8.40245 4.00961C8.49944 3.99031 8.59998 4.00022 8.69134 4.03806C8.7827 4.0759 8.86079 4.13999 8.91573 4.22221C8.97067 4.30444 9 4.40111 9 4.5C9 4.63261 8.94732 4.75979 8.85355 4.85355C8.75978 4.94732 8.63261 5 8.5 5ZM5.5 6.09V0.5C5.5 0.367392 5.44732 0.240215 5.35355 0.146447C5.25978 0.0526784 5.13261 0 5 0C4.86739 0 4.74021 0.0526784 4.64645 0.146447C4.55268 0.240215 4.5 0.367392 4.5 0.5V6.09C4.21042 6.1951 3.96023 6.38681 3.78342 6.63908C3.60661 6.89135 3.51176 7.19194 3.51176 7.5C3.51176 7.80806 3.60661 8.10865 3.78342 8.36092C3.96023 8.61319 4.21042 8.8049 4.5 8.91V9.5C4.5 9.63261 4.55268 9.75979 4.64645 9.85355C4.74021 9.94732 4.86739 10 5 10C5.13261 10 5.25978 9.94732 5.35355 9.85355C5.44732 9.75979 5.5 9.63261 5.5 9.5V8.91C5.78958 8.8049 6.03977 8.61319 6.21658 8.36092C6.39339 8.10865 6.48824 7.80806 6.48824 7.5C6.48824 7.19194 6.39339 6.89135 6.21658 6.63908C6.03977 6.38681 5.78958 6.1951 5.5 6.09ZM5 8C4.90111 8 4.80444 7.97068 4.72221 7.91574C4.63999 7.86079 4.5759 7.7827 4.53806 7.69134C4.50022 7.59998 4.49031 7.49944 4.50961 7.40245C4.5289 7.30546 4.57652 7.21637 4.64645 7.14645C4.71637 7.07652 4.80546 7.0289 4.90245 7.00961C4.99944 6.99031 5.09998 7.00022 5.19134 7.03806C5.2827 7.0759 5.36079 7.13999 5.41573 7.22221C5.47067 7.30444 5.5 7.40111 5.5 7.5C5.5 7.63261 5.44732 7.75979 5.35355 7.85355C5.25978 7.94732 5.13261 8 5 8ZM2 2.09V0.5C2 0.367392 1.94732 0.240215 1.85355 0.146447C1.75978 0.0526784 1.63261 0 1.5 0C1.36739 0 1.24021 0.0526784 1.14645 0.146447C1.05268 0.240215 0.999999 0.367392 0.999999 0.5V2.09C0.710423 2.1951 0.460229 2.38681 0.28342 2.63908C0.106611 2.89135 0.0117607 3.19194 0.0117607 3.5C0.0117607 3.80806 0.106611 4.10865 0.28342 4.36092C0.460229 4.61319 0.710423 4.8049 0.999999 4.91V9.5C0.999999 9.63261 1.05268 9.75979 1.14645 9.85355C1.24021 9.94732 1.36739 10 1.5 10C1.63261 10 1.75978 9.94732 1.85355 9.85355C1.94732 9.75979 2 9.63261 2 9.5V4.91C2.28958 4.8049 2.53977 4.61319 2.71658 4.36092C2.89339 4.10865 2.98824 3.80806 2.98824 3.5C2.98824 3.19194 2.89339 2.89135 2.71658 2.63908C2.53977 2.38681 2.28958 2.1951 2 2.09V2.09ZM1.5 4C1.40111 4 1.30444 3.97068 1.22221 3.91573C1.13999 3.86079 1.0759 3.7827 1.03806 3.69134C1.00022 3.59998 0.990314 3.49945 1.00961 3.40245C1.0289 3.30546 1.07652 3.21637 1.14645 3.14645C1.21637 3.07652 1.30546 3.0289 1.40245 3.00961C1.49944 2.99031 1.59998 3.00022 1.69134 3.03806C1.7827 3.0759 1.86079 3.13999 1.91573 3.22221C1.97067 3.30444 2 3.40111 2 3.5C2 3.63261 1.94732 3.75979 1.85355 3.85355C1.75978 3.94732 1.63261 4 1.5 4Z" fill="#383838"/>
</svg>
