<svg width="11" height="11" viewBox="0 0 11 11" fill="none" xmlns="http://www.w3.org/2000/svg">
<path d="M10.7596 9.99043L8.75 7.99709C9.53006 7.02448 9.90782 5.78996 9.80561 4.54738C9.7034 3.3048 9.12899 2.1486 8.20049 1.31652C7.27199 0.48445 6.05998 0.0397439 4.81367 0.0738474C3.56736 0.107951 2.38148 0.618272 1.49987 1.49988C0.618264 2.38148 0.107943 3.56736 0.0738398 4.81368C0.0397362 6.05999 0.484442 7.272 1.31652 8.2005C2.14859 9.129 3.30479 9.70341 4.54737 9.80562C5.78995 9.90782 7.02447 9.53006 7.99709 8.75001L9.99042 10.7433C10.0408 10.7941 10.1007 10.8344 10.1667 10.8619C10.2327 10.8894 10.3035 10.9036 10.375 10.9036C10.4465 10.9036 10.5173 10.8894 10.5833 10.8619C10.6493 10.8344 10.7092 10.7941 10.7596 10.7433C10.8572 10.6423 10.9118 10.5074 10.9118 10.3669C10.9118 10.2264 10.8572 10.0914 10.7596 9.99043V9.99043ZM4.95834 8.75001C4.20841 8.75001 3.47533 8.52763 2.8518 8.111C2.22826 7.69437 1.74227 7.10219 1.45529 6.40935C1.16831 5.71651 1.09322 4.95414 1.23952 4.21863C1.38583 3.48311 1.74695 2.8075 2.27722 2.27723C2.8075 1.74696 3.48311 1.38583 4.21862 1.23953C4.95413 1.09323 5.71651 1.16832 6.40934 1.4553C7.10218 1.74228 7.69436 2.22827 8.11099 2.85181C8.52762 3.47534 8.75 4.20842 8.75 4.95834C8.75 5.96396 8.35052 6.92838 7.63945 7.63946C6.92837 8.35053 5.96395 8.75001 4.95834 8.75001V8.75001Z" fill="#383838"/>
</svg>
